<?xml version="1.0" encoding="UTF-8"?>
<svg id="Layer_2" data-name="Layer 2" xmlns="http://www.w3.org/2000/svg" viewBox="0 0 8390.29 3535">
  <defs>
    <style>
      .cls-1 {
        fill-rule: evenodd;
      }

      .cls-1, .cls-2 {
        fill: #f6f5da;
      }
    </style>
  </defs>
  <g id="Layer_1-2" data-name="Layer 1">
    <g id="Layer_2-2" data-name="Layer 2">
      <g id="Layer_1-2" data-name="Layer 1-2">
        <path class="cls-2" d="M5450.34,2652.77v-490.4h219.64c52.93,0,92.48,12.17,118.64,35.9,26.16,23.73,39.55,54.15,38.94,91.87,0,48.07-25.55,80.92-76.66,97.96v1.83c26.16,7.3,49.28,23.12,66.32,44.42,17.04,21.9,25.55,49.28,24.95,76.66,0,43.2-14.6,77.27-43.2,102.22-29.81,26.16-71.19,38.94-123.51,38.94h-225.12v.61ZM5549.52,2359.5h107.69c18.86,1.22,37.72-4.26,52.93-15.21,24.34-20.69,26.77-57.19,6.08-80.92-1.22-1.83-3.04-3.65-4.87-4.87-12.78-10.34-29.81-15.21-51.72-15.21h-109.52v116.82l-.61-.61ZM5549.52,2433.12v136.9h114.39c23.73,0,42.59-6.08,55.98-18.25,13.99-12.17,21.3-29.81,20.69-48.67,1.22-20.08-7.3-38.94-22.51-51.72-16.43-12.78-36.51-19.47-57.19-18.25h-111.95.61Z"/>
        <path class="cls-2" d="M6204.8,2652.77h-90.05v-41.37h-1.83c-10.95,15.82-25.55,29.2-41.98,38.33-18.25,8.52-38.33,12.78-58.41,12.17-38.33,0-68.14-11.56-90.05-34.07-21.3-23.12-32.25-53.54-32.25-92.48v-234.86h92.48v219.04c0,42.59,19.47,63.89,58.41,63.89,19.47.61,38.33-7.3,51.72-21.9,13.39-16.43,20.08-36.51,19.47-57.8v-203.22h93.09v351.67l-.61.61Z"/>
        <path class="cls-2" d="M6408.02,2663.11c-50.5,0-89.44-10.95-118.04-33.46-27.99-21.9-45.02-55.37-46.85-90.66h86.4c6.08,38.94,31.64,58.41,76.66,58.41s36.51-3.65,47.46-10.95c10.34-6.08,17.04-17.64,17.04-29.81,0-4.26-.61-8.52-2.43-12.17-1.83-4.26-4.87-7.3-7.91-9.73-3.65-3.04-7.3-5.48-10.34-7.3-4.87-2.43-10.34-4.26-15.21-5.48l-17.04-4.26c-3.65-.61-10.34-2.43-20.08-3.65-9.74-1.22-15.82-3.04-19.47-3.65-15.82-3.04-31.64-6.69-46.85-11.56-13.39-4.26-26.16-10.34-38.33-17.04-12.78-7.3-23.12-17.64-29.81-31.03-6.69-14.6-10.34-31.03-9.73-46.85,0-36.51,13.39-64.49,40.16-83.96,26.77-19.47,61.45-29.2,103.43-28.6,45.02,0,80.92,10.34,106.48,31.03,26.16,21.3,41.98,51.72,44.42,85.18h-84.57c-3.65-34.07-26.16-51.72-68.14-51.72-15.21-.61-31.03,2.43-44.42,10.34-10.34,6.08-16.43,17.04-16.43,28.6,0,3.65.61,7.91,2.43,11.56,1.83,3.65,4.87,6.69,8.52,9.13,3.65,2.43,7.3,4.26,11.56,6.08,4.87,1.83,10.34,3.65,15.82,4.87l17.64,4.26c4.87,1.22,12.17,2.43,20.69,4.26l20.69,3.65c14.6,3.04,26.77,6.08,35.9,8.52,10.95,3.04,21.9,7.3,32.86,12.17,10.95,4.87,20.69,10.95,29.21,19.47,7.91,8.52,13.99,18.25,18.25,28.6,5.48,13.39,7.91,27.99,7.91,41.98,1.22,32.86-13.99,63.89-40.76,82.75-27.38,20.69-62.67,31.03-107.08,31.03h0Z"/>
        <path class="cls-2" d="M6597.85,2245.73v-83.96h93.09v83.96h-93.09ZM6597.85,2652.77v-352.28h93.09v351.67h-93.09v.61Z"/>
        <path class="cls-2" d="M6843.04,2301.09v48.07h1.83c21.3-37.11,61.45-59.02,104.04-57.8,35.9,0,65.71,12.17,87.61,36.51,22.51,24.34,33.46,55.98,33.46,94.92v229.99h-93.09v-215.99c.61-17.04-4.87-33.46-15.82-46.85-11.56-12.17-27.99-18.86-45.02-17.64-19.47,0-38.33,7.91-51.11,22.51-13.99,16.43-21.3,37.11-20.08,58.41v199.57h-93.09v-351.67h91.27Z"/>
        <path class="cls-2" d="M7293.89,2663.11c-56.58,0-101.61-17.64-133.86-52.33-32.25-35.29-48.67-79.7-48.67-133.86s16.43-96.74,48.67-132.03c32.25-35.29,74.23-52.93,124.73-52.93,55.37,0,97.96,19.47,128.38,57.8,30.42,38.33,45.02,90.05,45.02,154.54h-254.93c3.65,27.99,12.78,49.28,27.99,65.1,15.21,15.82,35.9,23.12,62.06,23.12s57.19-14.6,68.14-43.2h91.87c-6.69,32.86-25.55,62.06-52.33,82.14-27.99,21.9-63.28,32.86-107.08,32.86v-1.22ZM7285.98,2363.15c-45.02,0-72.4,24.95-81.53,75.45h156.37c0-20.69-8.52-40.16-22.51-54.76-13.99-13.99-32.86-21.3-52.33-20.69Z"/>
        <path class="cls-2" d="M7644.35,2663.11c-50.5,0-89.44-10.95-118.04-33.46-27.99-21.9-45.63-55.37-46.85-90.66h86.4c6.08,38.94,31.64,58.41,76.66,58.41s36.51-3.65,47.46-10.95c10.34-6.08,17.04-17.64,17.04-29.81,0-4.26-.61-8.52-2.43-12.17-1.83-4.26-4.87-7.3-7.91-9.73-3.65-3.04-7.3-5.48-10.34-7.3-4.87-2.43-10.34-4.26-15.21-5.48l-17.04-4.26c-3.65-.61-10.34-2.43-20.08-3.65-9.74-1.22-15.82-3.04-19.47-3.65-15.82-3.04-31.64-6.69-46.85-11.56-13.39-4.26-26.16-10.34-38.33-17.04-12.78-7.3-23.12-17.64-29.81-31.03-6.69-14.6-10.34-31.03-9.73-46.85,0-36.51,13.39-64.49,40.16-83.96,26.77-19.47,61.45-29.2,103.43-28.6,45.02,0,80.92,10.34,106.48,31.03,26.16,21.3,41.98,51.72,44.42,85.18h-84.57c-3.65-34.07-26.16-51.72-68.14-51.72-15.21-.61-31.03,2.43-44.42,10.34-10.34,6.08-16.43,17.04-16.43,28.6,0,3.65.61,7.91,2.43,11.56,1.83,3.65,4.87,6.69,8.52,9.13,3.65,2.43,7.3,4.26,11.56,6.08,4.87,1.83,10.34,3.65,15.82,4.87l17.64,4.26c4.87,1.22,12.17,2.43,20.69,4.26l20.69,3.65c14.6,3.04,26.77,6.08,35.9,8.52,10.95,3.04,21.9,7.3,32.86,12.17,10.95,4.87,20.69,10.95,29.21,19.47,7.91,8.52,13.99,18.25,18.25,28.6,5.48,13.39,7.91,27.99,7.91,41.98,1.22,32.86-13.99,63.89-40.76,82.75-27.38,20.69-62.67,31.03-107.08,31.03h0Z"/>
        <path class="cls-2" d="M7977.16,2663.11c-50.5,0-89.44-10.95-118.04-33.46-28.6-21.9-45.63-55.37-46.85-90.66h86.4c6.08,38.94,31.64,58.41,76.66,58.41s36.51-3.65,47.46-10.95c10.34-6.08,17.04-17.64,17.04-29.81,0-4.26-.61-8.52-2.43-12.17-1.83-4.26-4.87-7.3-8.52-9.73-3.65-3.04-7.3-5.48-10.34-7.3-4.87-2.43-9.73-4.26-15.21-5.48l-17.04-4.26c-3.65-.61-10.34-2.43-20.08-3.65-9.74-1.22-15.82-3.04-19.47-3.65-15.82-3.04-31.64-6.69-46.85-11.56-13.39-4.26-26.16-10.34-38.33-17.04-12.78-7.3-23.12-17.64-29.81-31.03-6.69-14.6-10.34-31.03-9.73-46.85,0-36.51,13.39-64.49,40.16-83.96,26.77-19.47,61.45-29.2,103.43-28.6,45.63,0,80.92,10.34,106.48,31.03,26.16,21.3,41.98,51.72,44.42,85.18h-84.57c-3.65-34.07-26.16-51.72-68.14-51.72-15.21-.61-31.03,2.43-44.42,10.34-10.34,6.08-16.43,17.04-16.43,28.6,0,3.65.61,7.91,2.43,11.56,1.83,3.65,4.87,6.69,7.91,9.13,3.65,2.43,7.3,4.26,11.56,6.08,4.87,1.83,10.34,3.65,15.82,4.87l17.64,4.26c4.87,1.22,12.17,2.43,20.69,4.26l20.69,3.65c14.6,3.04,26.77,6.08,35.9,8.52,10.95,3.04,21.9,7.3,32.25,12.17,10.95,4.87,20.69,10.95,29.21,19.47,7.91,8.52,13.99,18.25,18.25,28.6,5.48,13.39,7.91,27.99,7.91,41.98,1.22,32.86-13.99,63.89-40.76,82.75-27.38,20.69-62.67,31.03-107.08,31.03h1.82Z"/>
        <path class="cls-2" d="M5660.25,3431.56c-65.71,0-116.82-13.99-153.33-41.98-36.51-27.99-55.37-67.54-57.19-119.25h96.74c3.04,29.2,13.39,49.89,31.03,62.67,17.64,12.78,43.81,18.86,78.49,18.86,23.73,1.22,46.85-4.26,68.14-15.21,17.04-9.13,27.38-27.99,26.77-47.46,0-7.3-1.22-13.99-3.04-20.69-2.43-6.69-6.69-12.17-12.78-16.43-6.08-4.87-11.56-8.52-16.43-11.56-7.91-4.26-16.43-7.3-24.95-9.73-12.17-3.04-21.3-6.08-27.99-7.3-6.69-1.22-18.25-4.26-35.29-8.52-20.69-4.87-37.72-9.13-51.72-12.78-15.21-4.26-29.81-9.73-44.42-17.04-13.99-6.08-26.77-15.21-38.33-25.55-10.34-10.34-18.25-23.12-23.73-36.51-6.69-16.43-9.73-34.07-9.73-52.33,0-46.85,17.04-82.75,51.72-107.69,34.68-24.95,79.1-37.72,135.07-37.72s99.78,13.39,132.64,39.55c33.46,26.16,51.72,63.89,55.37,112.56h-94.31c-1.22-21.9-12.17-41.37-29.81-54.76-18.86-13.39-41.37-20.08-64.49-18.86-26.77,0-48.07,5.48-63.89,15.82-14.6,8.52-23.73,24.34-23.73,41.37-.61,17.04,8.52,32.86,23.73,40.77,15.82,8.52,43.2,17.04,82.75,26.16,23.73,4.87,42.59,9.73,57.8,13.99,16.43,4.87,32.86,10.95,48.67,18.25,15.21,6.08,28.6,15.21,40.77,26.16,10.34,10.95,18.86,23.73,24.34,37.72,6.69,17.04,10.34,35.9,9.73,54.15,0,48.07-17.64,85.79-52.33,113.17-34.68,27.38-80.31,40.77-136.9,40.77l.61-.61Z"/>
        <path class="cls-2" d="M5901.8,3016.61v-82.75h92.48v82.75h-92.48ZM5901.8,3420.61v-349.24h92.48v349.24h-92.48Z"/>
        <path class="cls-2" d="M6053.91,3420.61v-349.24h89.44v46.85h1.83c21.9-37.72,55.98-56.58,101.61-56.58,41.37-.61,79.7,23.73,96.74,61.45h1.22c25.55-40.77,60.24-61.45,104.65-61.45,36.51,0,64.49,10.95,84.57,32.86,20.08,21.9,30.42,52.33,30.42,90.66v234.85h-92.48v-219.04c0-40.16-17.64-59.63-53.54-59.63-17.64-.61-34.68,6.69-46.24,20.69-10.95,13.99-16.43,32.25-16.43,55.37v202.61h-92.48v-219.04c0-40.16-17.64-59.63-53.54-59.63-17.64,0-34.07,7.3-45.02,20.69-11.56,13.99-17.64,32.25-17.64,55.37v202.61h-92.48l-.61.61Z"/>
        <path class="cls-2" d="M6622.18,3535v-463.63h88.83v43.81h1.83c23.12-34.07,62.06-54.15,102.83-52.93,45.63,0,82.75,17.04,110.13,51.11,27.99,34.07,41.37,78.49,41.37,133.25s-13.99,101-41.37,134.46c-27.99,33.46-64.49,49.89-109.52,49.89s-79.1-16.43-101-49.89h-1.22v153.33h-92.48l.61.61ZM6796.8,3353.68c22.51.61,43.2-9.73,55.98-27.99,13.99-18.86,20.69-44.42,20.69-77.27s-6.69-62.67-19.47-82.14c-12.78-19.47-33.46-29.81-60.84-29.81s-48.07,10.34-61.45,31.03c-13.39,20.69-19.47,47.46-19.47,81.53s7.3,57.8,21.9,76.66c14.6,18.86,35.29,27.99,62.67,28.6h0v-.61Z"/>
        <path class="cls-2" d="M7012.19,3420.61v-486.75h92.48v486.75h-92.48Z"/>
        <path class="cls-2" d="M7166.12,3016.61v-82.75h92.48v82.75h-92.48ZM7166.12,3420.61v-349.24h92.48v349.24h-92.48Z"/>
        <path class="cls-2" d="M7298.15,3135.25v-63.89h47.46v-31.03c0-40.77,13.99-69.97,41.98-87.01,27.99-17.04,65.71-23.12,113.17-18.25v71.19c-23.12-.61-39.55,1.22-48.67,6.08-9.13,4.87-13.99,15.82-13.99,33.46v25.55h62.67v63.89h-62.67v285.36h-92.48v-285.36h-47.46ZM7542.74,3016.61v-82.75h92.48v82.75h-92.48ZM7542.74,3420.61v-349.24h92.48v349.24h-92.48Z"/>
        <path class="cls-2" d="M7859.13,3430.95c-55.98,0-100.39-17.64-132.64-52.33-32.25-34.68-48.67-79.1-48.67-133.25s16.43-96.13,48.67-130.81c32.25-35.29,73.62-52.93,124.12-52.93,54.76,0,97.35,18.86,127.16,57.19,29.81,38.33,45.02,89.44,45.02,153.33h-253.11c3.65,27.99,12.78,49.28,27.99,64.49,15.21,15.21,35.29,22.51,61.45,23.12,34.07,0,56.58-13.99,67.54-42.59h91.26c-6.69,32.86-24.95,61.45-51.72,81.53-27.99,21.3-63.28,32.25-106.48,32.25h-.61ZM7851.83,3133.43c-45.02,0-71.8,24.95-80.92,74.84h155.15c0-20.08-8.52-39.55-22.51-54.15-13.39-13.99-32.25-21.3-51.72-20.69h0Z"/>
        <path class="cls-2" d="M8196.2,3430.95c-41.37,1.22-80.92-17.64-107.08-49.89-27.38-33.46-40.76-78.49-40.76-134.46s13.99-98.57,41.98-133.25c25.55-32.86,65.1-52.33,107.08-51.72,43.81,0,76.66,17.04,98.57,51.72h1.83v-180.1h92.48v486.75h-89.44v-45.63h-1.22c-22.51,37.11-57.19,55.98-104.04,55.98l.61.61ZM8216.89,3353.07c27.38,0,48.07-9.13,62.06-27.99,13.99-18.86,21.3-44.42,21.3-77.27,0-74.23-26.77-111.95-80.92-111.95-23.12-1.22-45.02,10.34-57.19,29.81-13.39,20.08-19.47,46.24-19.47,79.7s6.69,60.24,19.47,79.1c12.17,18.25,32.86,28.6,54.76,27.99v.61Z"/>
        <path class="cls-1" d="M3436.43,2568.2l854.85-854.85v-854.85L3435.21,6.08l-904.13,1.22v818.34L1711.52,6.08v-1.83h-1.83l-4.26-4.26v4.26c-419.82,0-634.6-1.22-849.98-2.43C639.46,1.22,423.47,0,0,0l859.72,859.72h851.81l851.81-1.83h0l871.88,3.04c0,570.1,1.22,1137.16,1.22,1707.26-568.28-1.22-1138.38-3.04-1701.18-3.04l851.81,859.72h1704.83v-854.85h0c-283.53,0-568.28,0-854.85-1.22l-.61-.61Z"/>
        <path class="cls-1" d="M873.1,3415.74h854.85c0-846.94,4.26-1709.7,4.26-2556.64l-859.72,851.81v1704.83h.61Z"/>
        <path class="cls-2" d="M6793.15,1635.47c2.43-93.09,25.55-184.96,67.54-268.32,41.98-85.79,87.01-153.93,135.07-205.04,56.58-57.8,117.43-111.34,181.92-160.63,24.95-20.08,63.89-49.89,116.82-88.83,54.15-38.94,94.92-69.36,121.08-90.66,26.16-21.9,55.98-48.67,88.83-81.53,34.07-34.07,58.41-68.14,72.4-102.22,13.99-35.9,21.3-73.62,20.69-111.95,0-76.05-19.47-136.9-58.41-181.92-38.94-45.02-93.09-67.54-163.06-67.54-80.92,0-144.81,27.99-191.05,83.96-45.02,55.98-68.14,135.68-69.97,240.33h-298.13c0-186.79,47.46-332.2,142.37-436.25,96.13-105.87,237.29-158.19,424.08-158.19s299.96,48.67,396.09,146.63c97.96,97.96,146.63,219.04,146.63,363.84.61,66.93-10.34,133.25-32.86,195.92-21.3,59.02-54.76,113.17-97.96,158.19-37.72,41.37-77.88,79.1-121.08,114.39-35.9,27.99-85.18,63.28-149.07,104.65-174.01,111.95-281.1,206.87-321.86,284.14h736.81v261.02h-1146.9,0Z"/>
        <path class="cls-2" d="M5427.83,285.96V8.52h1308.74v277.45h-489.18v1349.5h-329.77V285.96h-489.79Z"/>
        <rect class="cls-2" x="4890.58" y="6.08" width="24.34" height="3418.18"/>
      </g>
    </g>
  </g>
</svg>